<mxfile host="Electron" modified="2024-05-03T15:44:16.136Z" agent="Mozilla/5.0 (Windows NT 10.0; Win64; x64) AppleWebKit/537.36 (KHTML, like Gecko) draw.io/24.2.5 Chrome/120.0.6099.109 Electron/28.1.0 Safari/537.36" etag="wtmIVh3W50nSe-ZFuqDA" version="24.2.5" type="device">
  <diagram id="R2lEEEUBdFMjLlhIrx00" name="Page-1">
    <mxGraphModel dx="1750" dy="1048" grid="1" gridSize="10" guides="1" tooltips="1" connect="1" arrows="1" fold="1" page="1" pageScale="1" pageWidth="850" pageHeight="1100" math="0" shadow="0" extFonts="Permanent Marker^https://fonts.googleapis.com/css?family=Permanent+Marker">
      <root>
        <mxCell id="0" />
        <mxCell id="1" parent="0" />
        <mxCell id="qhzzw8bc_UFKbvu62uzi-15" value="&lt;span style=&quot;text-wrap: wrap;&quot;&gt;Medical equipment&lt;/span&gt;" style="swimlane;fontStyle=0;childLayout=stackLayout;horizontal=1;startSize=26;fillColor=none;horizontalStack=0;resizeParent=1;resizeParentMax=0;resizeLast=0;collapsible=1;marginBottom=0;html=1;" vertex="1" parent="1">
          <mxGeometry x="100" y="280" width="140" height="52" as="geometry" />
        </mxCell>
        <mxCell id="qhzzw8bc_UFKbvu62uzi-16" value="id" style="text;strokeColor=none;fillColor=none;align=left;verticalAlign=top;spacingLeft=4;spacingRight=4;overflow=hidden;rotatable=0;points=[[0,0.5],[1,0.5]];portConstraint=eastwest;whiteSpace=wrap;html=1;fontStyle=4" vertex="1" parent="qhzzw8bc_UFKbvu62uzi-15">
          <mxGeometry y="26" width="140" height="26" as="geometry" />
        </mxCell>
        <mxCell id="qhzzw8bc_UFKbvu62uzi-20" value="&lt;span style=&quot;text-wrap: wrap;&quot;&gt;Pharmacist&lt;/span&gt;" style="swimlane;fontStyle=0;childLayout=stackLayout;horizontal=1;startSize=26;fillColor=none;horizontalStack=0;resizeParent=1;resizeParentMax=0;resizeLast=0;collapsible=1;marginBottom=0;html=1;" vertex="1" parent="1">
          <mxGeometry x="355" y="306" width="140" height="52" as="geometry" />
        </mxCell>
        <mxCell id="qhzzw8bc_UFKbvu62uzi-21" value="id" style="text;strokeColor=none;fillColor=none;align=left;verticalAlign=top;spacingLeft=4;spacingRight=4;overflow=hidden;rotatable=0;points=[[0,0.5],[1,0.5]];portConstraint=eastwest;whiteSpace=wrap;html=1;fontStyle=4" vertex="1" parent="qhzzw8bc_UFKbvu62uzi-20">
          <mxGeometry y="26" width="140" height="26" as="geometry" />
        </mxCell>
        <mxCell id="qhzzw8bc_UFKbvu62uzi-24" value="use" style="swimlane;fontStyle=0;childLayout=stackLayout;horizontal=1;startSize=26;fillColor=none;horizontalStack=0;resizeParent=1;resizeParentMax=0;resizeLast=0;collapsible=1;marginBottom=0;html=1;" vertex="1" parent="1">
          <mxGeometry x="160" y="420" width="140" height="78" as="geometry" />
        </mxCell>
        <mxCell id="qhzzw8bc_UFKbvu62uzi-25" value="medical_id" style="text;strokeColor=none;fillColor=none;align=left;verticalAlign=top;spacingLeft=4;spacingRight=4;overflow=hidden;rotatable=0;points=[[0,0.5],[1,0.5]];portConstraint=eastwest;whiteSpace=wrap;html=1;fontStyle=4" vertex="1" parent="qhzzw8bc_UFKbvu62uzi-24">
          <mxGeometry y="26" width="140" height="26" as="geometry" />
        </mxCell>
        <mxCell id="qhzzw8bc_UFKbvu62uzi-26" value="&lt;span style=&quot;text-align: center;&quot;&gt;Pharmacist_id&lt;/span&gt;" style="text;strokeColor=none;fillColor=none;align=left;verticalAlign=top;spacingLeft=4;spacingRight=4;overflow=hidden;rotatable=0;points=[[0,0.5],[1,0.5]];portConstraint=eastwest;whiteSpace=wrap;html=1;fontStyle=4" vertex="1" parent="qhzzw8bc_UFKbvu62uzi-24">
          <mxGeometry y="52" width="140" height="26" as="geometry" />
        </mxCell>
        <mxCell id="qhzzw8bc_UFKbvu62uzi-29" style="edgeStyle=orthogonalEdgeStyle;rounded=0;orthogonalLoop=1;jettySize=auto;html=1;entryX=0;entryY=0.5;entryDx=0;entryDy=0;" edge="1" parent="1" source="qhzzw8bc_UFKbvu62uzi-25" target="qhzzw8bc_UFKbvu62uzi-16">
          <mxGeometry relative="1" as="geometry" />
        </mxCell>
        <mxCell id="qhzzw8bc_UFKbvu62uzi-30" style="edgeStyle=orthogonalEdgeStyle;rounded=0;orthogonalLoop=1;jettySize=auto;html=1;" edge="1" parent="1" source="qhzzw8bc_UFKbvu62uzi-26" target="qhzzw8bc_UFKbvu62uzi-21">
          <mxGeometry relative="1" as="geometry" />
        </mxCell>
        <mxCell id="qhzzw8bc_UFKbvu62uzi-31" value="&lt;span style=&quot;text-wrap: wrap;&quot;&gt;Drug&lt;/span&gt;" style="swimlane;fontStyle=0;childLayout=stackLayout;horizontal=1;startSize=26;fillColor=none;horizontalStack=0;resizeParent=1;resizeParentMax=0;resizeLast=0;collapsible=1;marginBottom=0;html=1;" vertex="1" parent="1">
          <mxGeometry x="600" y="306" width="140" height="104" as="geometry" />
        </mxCell>
        <mxCell id="qhzzw8bc_UFKbvu62uzi-32" value="id" style="text;strokeColor=none;fillColor=none;align=left;verticalAlign=top;spacingLeft=4;spacingRight=4;overflow=hidden;rotatable=0;points=[[0,0.5],[1,0.5]];portConstraint=eastwest;whiteSpace=wrap;html=1;fontStyle=4" vertex="1" parent="qhzzw8bc_UFKbvu62uzi-31">
          <mxGeometry y="26" width="140" height="26" as="geometry" />
        </mxCell>
        <mxCell id="qhzzw8bc_UFKbvu62uzi-35" value="&lt;span style=&quot;text-align: center;&quot;&gt;Pharmacist_id&lt;/span&gt;" style="text;strokeColor=none;fillColor=none;align=left;verticalAlign=top;spacingLeft=4;spacingRight=4;overflow=hidden;rotatable=0;points=[[0,0.5],[1,0.5]];portConstraint=eastwest;whiteSpace=wrap;html=1;fontStyle=0" vertex="1" parent="qhzzw8bc_UFKbvu62uzi-31">
          <mxGeometry y="52" width="140" height="26" as="geometry" />
        </mxCell>
        <mxCell id="qhzzw8bc_UFKbvu62uzi-38" value="client_id" style="text;strokeColor=none;fillColor=none;align=left;verticalAlign=top;spacingLeft=4;spacingRight=4;overflow=hidden;rotatable=0;points=[[0,0.5],[1,0.5]];portConstraint=eastwest;whiteSpace=wrap;html=1;fontStyle=0" vertex="1" parent="qhzzw8bc_UFKbvu62uzi-31">
          <mxGeometry y="78" width="140" height="26" as="geometry" />
        </mxCell>
        <mxCell id="qhzzw8bc_UFKbvu62uzi-33" value="&lt;span style=&quot;text-wrap: wrap;&quot;&gt;Client&lt;/span&gt;" style="swimlane;fontStyle=0;childLayout=stackLayout;horizontal=1;startSize=26;fillColor=none;horizontalStack=0;resizeParent=1;resizeParentMax=0;resizeLast=0;collapsible=1;marginBottom=0;html=1;" vertex="1" parent="1">
          <mxGeometry x="520" y="520" width="140" height="78" as="geometry" />
        </mxCell>
        <mxCell id="qhzzw8bc_UFKbvu62uzi-37" value="id" style="text;strokeColor=none;fillColor=none;align=left;verticalAlign=top;spacingLeft=4;spacingRight=4;overflow=hidden;rotatable=0;points=[[0,0.5],[1,0.5]];portConstraint=eastwest;whiteSpace=wrap;html=1;fontStyle=4" vertex="1" parent="qhzzw8bc_UFKbvu62uzi-33">
          <mxGeometry y="26" width="140" height="26" as="geometry" />
        </mxCell>
        <mxCell id="qhzzw8bc_UFKbvu62uzi-34" value="&lt;span style=&quot;text-align: center;&quot;&gt;Pharmacist_id&lt;/span&gt;" style="text;strokeColor=none;fillColor=none;align=left;verticalAlign=top;spacingLeft=4;spacingRight=4;overflow=hidden;rotatable=0;points=[[0,0.5],[1,0.5]];portConstraint=eastwest;whiteSpace=wrap;html=1;fontStyle=0" vertex="1" parent="qhzzw8bc_UFKbvu62uzi-33">
          <mxGeometry y="52" width="140" height="26" as="geometry" />
        </mxCell>
        <mxCell id="qhzzw8bc_UFKbvu62uzi-36" style="edgeStyle=orthogonalEdgeStyle;rounded=0;orthogonalLoop=1;jettySize=auto;html=1;" edge="1" parent="1" source="qhzzw8bc_UFKbvu62uzi-35" target="qhzzw8bc_UFKbvu62uzi-21">
          <mxGeometry relative="1" as="geometry" />
        </mxCell>
        <mxCell id="qhzzw8bc_UFKbvu62uzi-40" style="edgeStyle=orthogonalEdgeStyle;rounded=0;orthogonalLoop=1;jettySize=auto;html=1;entryX=0.104;entryY=1.032;entryDx=0;entryDy=0;entryPerimeter=0;" edge="1" parent="1" source="qhzzw8bc_UFKbvu62uzi-34" target="qhzzw8bc_UFKbvu62uzi-21">
          <mxGeometry relative="1" as="geometry" />
        </mxCell>
        <mxCell id="qhzzw8bc_UFKbvu62uzi-41" value="" style="edgeStyle=orthogonalEdgeStyle;rounded=0;orthogonalLoop=1;jettySize=auto;entryX=0;entryY=0.5;entryDx=0;entryDy=0;html=1;" edge="1" parent="1" source="qhzzw8bc_UFKbvu62uzi-38" target="qhzzw8bc_UFKbvu62uzi-37">
          <mxGeometry relative="1" as="geometry" />
        </mxCell>
        <mxCell id="qhzzw8bc_UFKbvu62uzi-42" value="Order" style="swimlane;fontStyle=0;childLayout=stackLayout;horizontal=1;startSize=26;fillColor=none;horizontalStack=0;resizeParent=1;resizeParentMax=0;resizeLast=0;collapsible=1;marginBottom=0;html=1;" vertex="1" parent="1">
          <mxGeometry x="760" y="320" width="140" height="104" as="geometry" />
        </mxCell>
        <mxCell id="qhzzw8bc_UFKbvu62uzi-43" value="id" style="text;strokeColor=none;fillColor=none;align=left;verticalAlign=top;spacingLeft=4;spacingRight=4;overflow=hidden;rotatable=0;points=[[0,0.5],[1,0.5]];portConstraint=eastwest;whiteSpace=wrap;html=1;fontStyle=4" vertex="1" parent="qhzzw8bc_UFKbvu62uzi-42">
          <mxGeometry y="26" width="140" height="26" as="geometry" />
        </mxCell>
        <mxCell id="qhzzw8bc_UFKbvu62uzi-44" value="bill_id" style="text;strokeColor=none;fillColor=none;align=left;verticalAlign=top;spacingLeft=4;spacingRight=4;overflow=hidden;rotatable=0;points=[[0,0.5],[1,0.5]];portConstraint=eastwest;whiteSpace=wrap;html=1;fontStyle=0" vertex="1" parent="qhzzw8bc_UFKbvu62uzi-42">
          <mxGeometry y="52" width="140" height="26" as="geometry" />
        </mxCell>
        <mxCell id="qhzzw8bc_UFKbvu62uzi-45" value="client_id" style="text;strokeColor=none;fillColor=none;align=left;verticalAlign=top;spacingLeft=4;spacingRight=4;overflow=hidden;rotatable=0;points=[[0,0.5],[1,0.5]];portConstraint=eastwest;whiteSpace=wrap;html=1;fontStyle=0" vertex="1" parent="qhzzw8bc_UFKbvu62uzi-42">
          <mxGeometry y="78" width="140" height="26" as="geometry" />
        </mxCell>
        <mxCell id="qhzzw8bc_UFKbvu62uzi-46" style="edgeStyle=orthogonalEdgeStyle;rounded=0;orthogonalLoop=1;jettySize=auto;html=1;entryX=0.987;entryY=0.313;entryDx=0;entryDy=0;entryPerimeter=0;" edge="1" parent="1" source="qhzzw8bc_UFKbvu62uzi-45" target="qhzzw8bc_UFKbvu62uzi-37">
          <mxGeometry relative="1" as="geometry" />
        </mxCell>
        <mxCell id="qhzzw8bc_UFKbvu62uzi-47" value="Bill" style="swimlane;fontStyle=0;childLayout=stackLayout;horizontal=1;startSize=26;fillColor=none;horizontalStack=0;resizeParent=1;resizeParentMax=0;resizeLast=0;collapsible=1;marginBottom=0;html=1;" vertex="1" parent="1">
          <mxGeometry x="800" y="540" width="140" height="78" as="geometry" />
        </mxCell>
        <mxCell id="qhzzw8bc_UFKbvu62uzi-48" value="id" style="text;strokeColor=none;fillColor=none;align=left;verticalAlign=top;spacingLeft=4;spacingRight=4;overflow=hidden;rotatable=0;points=[[0,0.5],[1,0.5]];portConstraint=eastwest;whiteSpace=wrap;html=1;fontStyle=4" vertex="1" parent="qhzzw8bc_UFKbvu62uzi-47">
          <mxGeometry y="26" width="140" height="26" as="geometry" />
        </mxCell>
        <mxCell id="qhzzw8bc_UFKbvu62uzi-50" value="client_id" style="text;strokeColor=none;fillColor=none;align=left;verticalAlign=top;spacingLeft=4;spacingRight=4;overflow=hidden;rotatable=0;points=[[0,0.5],[1,0.5]];portConstraint=eastwest;whiteSpace=wrap;html=1;fontStyle=0" vertex="1" parent="qhzzw8bc_UFKbvu62uzi-47">
          <mxGeometry y="52" width="140" height="26" as="geometry" />
        </mxCell>
        <mxCell id="qhzzw8bc_UFKbvu62uzi-51" style="edgeStyle=orthogonalEdgeStyle;rounded=0;orthogonalLoop=1;jettySize=auto;html=1;entryX=0;entryY=0.5;entryDx=0;entryDy=0;" edge="1" parent="1" source="qhzzw8bc_UFKbvu62uzi-44" target="qhzzw8bc_UFKbvu62uzi-48">
          <mxGeometry relative="1" as="geometry" />
        </mxCell>
        <mxCell id="qhzzw8bc_UFKbvu62uzi-53" value="items" style="swimlane;fontStyle=0;childLayout=stackLayout;horizontal=1;startSize=26;fillColor=none;horizontalStack=0;resizeParent=1;resizeParentMax=0;resizeLast=0;collapsible=1;marginBottom=0;html=1;" vertex="1" parent="1">
          <mxGeometry x="990" y="290" width="140" height="78" as="geometry" />
        </mxCell>
        <mxCell id="qhzzw8bc_UFKbvu62uzi-54" value="id" style="text;strokeColor=none;fillColor=none;align=left;verticalAlign=top;spacingLeft=4;spacingRight=4;overflow=hidden;rotatable=0;points=[[0,0.5],[1,0.5]];portConstraint=eastwest;whiteSpace=wrap;html=1;fontStyle=4" vertex="1" parent="qhzzw8bc_UFKbvu62uzi-53">
          <mxGeometry y="26" width="140" height="26" as="geometry" />
        </mxCell>
        <mxCell id="qhzzw8bc_UFKbvu62uzi-55" value="order_id" style="text;strokeColor=none;fillColor=none;align=left;verticalAlign=top;spacingLeft=4;spacingRight=4;overflow=hidden;rotatable=0;points=[[0,0.5],[1,0.5]];portConstraint=eastwest;whiteSpace=wrap;html=1;fontStyle=0" vertex="1" parent="qhzzw8bc_UFKbvu62uzi-53">
          <mxGeometry y="52" width="140" height="26" as="geometry" />
        </mxCell>
        <mxCell id="qhzzw8bc_UFKbvu62uzi-57" style="edgeStyle=orthogonalEdgeStyle;rounded=0;orthogonalLoop=1;jettySize=auto;html=1;entryX=1.006;entryY=0.323;entryDx=0;entryDy=0;entryPerimeter=0;" edge="1" parent="1" source="qhzzw8bc_UFKbvu62uzi-55" target="qhzzw8bc_UFKbvu62uzi-43">
          <mxGeometry relative="1" as="geometry" />
        </mxCell>
        <mxCell id="qhzzw8bc_UFKbvu62uzi-58" value="&lt;span style=&quot;text-wrap: wrap;&quot;&gt;Payment&lt;/span&gt;" style="swimlane;fontStyle=0;childLayout=stackLayout;horizontal=1;startSize=26;fillColor=none;horizontalStack=0;resizeParent=1;resizeParentMax=0;resizeLast=0;collapsible=1;marginBottom=0;html=1;" vertex="1" parent="1">
          <mxGeometry x="1030" y="550" width="140" height="78" as="geometry" />
        </mxCell>
        <mxCell id="qhzzw8bc_UFKbvu62uzi-59" value="id" style="text;strokeColor=none;fillColor=none;align=left;verticalAlign=top;spacingLeft=4;spacingRight=4;overflow=hidden;rotatable=0;points=[[0,0.5],[1,0.5]];portConstraint=eastwest;whiteSpace=wrap;html=1;fontStyle=4" vertex="1" parent="qhzzw8bc_UFKbvu62uzi-58">
          <mxGeometry y="26" width="140" height="26" as="geometry" />
        </mxCell>
        <mxCell id="qhzzw8bc_UFKbvu62uzi-60" value="bill_id" style="text;strokeColor=none;fillColor=none;align=left;verticalAlign=top;spacingLeft=4;spacingRight=4;overflow=hidden;rotatable=0;points=[[0,0.5],[1,0.5]];portConstraint=eastwest;whiteSpace=wrap;html=1;fontStyle=0" vertex="1" parent="qhzzw8bc_UFKbvu62uzi-58">
          <mxGeometry y="52" width="140" height="26" as="geometry" />
        </mxCell>
        <mxCell id="qhzzw8bc_UFKbvu62uzi-62" style="edgeStyle=orthogonalEdgeStyle;rounded=0;orthogonalLoop=1;jettySize=auto;html=1;entryX=1;entryY=0.5;entryDx=0;entryDy=0;" edge="1" parent="1" source="qhzzw8bc_UFKbvu62uzi-60" target="qhzzw8bc_UFKbvu62uzi-48">
          <mxGeometry relative="1" as="geometry" />
        </mxCell>
        <mxCell id="qhzzw8bc_UFKbvu62uzi-63" value="&lt;span style=&quot;text-wrap: wrap;&quot;&gt;Credit&lt;/span&gt;" style="swimlane;fontStyle=0;childLayout=stackLayout;horizontal=1;startSize=26;fillColor=none;horizontalStack=0;resizeParent=1;resizeParentMax=0;resizeLast=0;collapsible=1;marginBottom=0;html=1;" vertex="1" parent="1">
          <mxGeometry x="1280" y="498" width="140" height="78" as="geometry" />
        </mxCell>
        <mxCell id="qhzzw8bc_UFKbvu62uzi-64" value="id" style="text;strokeColor=none;fillColor=none;align=left;verticalAlign=top;spacingLeft=4;spacingRight=4;overflow=hidden;rotatable=0;points=[[0,0.5],[1,0.5]];portConstraint=eastwest;whiteSpace=wrap;html=1;fontStyle=4" vertex="1" parent="qhzzw8bc_UFKbvu62uzi-63">
          <mxGeometry y="26" width="140" height="26" as="geometry" />
        </mxCell>
        <mxCell id="qhzzw8bc_UFKbvu62uzi-65" value="payment_id" style="text;strokeColor=none;fillColor=none;align=left;verticalAlign=top;spacingLeft=4;spacingRight=4;overflow=hidden;rotatable=0;points=[[0,0.5],[1,0.5]];portConstraint=eastwest;whiteSpace=wrap;html=1;fontStyle=0" vertex="1" parent="qhzzw8bc_UFKbvu62uzi-63">
          <mxGeometry y="52" width="140" height="26" as="geometry" />
        </mxCell>
        <mxCell id="qhzzw8bc_UFKbvu62uzi-66" value="&lt;span style=&quot;text-wrap: wrap;&quot;&gt;Cash&lt;/span&gt;" style="swimlane;fontStyle=0;childLayout=stackLayout;horizontal=1;startSize=26;fillColor=none;horizontalStack=0;resizeParent=1;resizeParentMax=0;resizeLast=0;collapsible=1;marginBottom=0;html=1;" vertex="1" parent="1">
          <mxGeometry x="1275" y="640" width="140" height="78" as="geometry" />
        </mxCell>
        <mxCell id="qhzzw8bc_UFKbvu62uzi-67" value="id" style="text;strokeColor=none;fillColor=none;align=left;verticalAlign=top;spacingLeft=4;spacingRight=4;overflow=hidden;rotatable=0;points=[[0,0.5],[1,0.5]];portConstraint=eastwest;whiteSpace=wrap;html=1;fontStyle=4" vertex="1" parent="qhzzw8bc_UFKbvu62uzi-66">
          <mxGeometry y="26" width="140" height="26" as="geometry" />
        </mxCell>
        <mxCell id="qhzzw8bc_UFKbvu62uzi-68" value="payment_id" style="text;strokeColor=none;fillColor=none;align=left;verticalAlign=top;spacingLeft=4;spacingRight=4;overflow=hidden;rotatable=0;points=[[0,0.5],[1,0.5]];portConstraint=eastwest;whiteSpace=wrap;html=1;fontStyle=0" vertex="1" parent="qhzzw8bc_UFKbvu62uzi-66">
          <mxGeometry y="52" width="140" height="26" as="geometry" />
        </mxCell>
        <mxCell id="qhzzw8bc_UFKbvu62uzi-69" style="edgeStyle=orthogonalEdgeStyle;rounded=0;orthogonalLoop=1;jettySize=auto;html=1;entryX=0.998;entryY=0.251;entryDx=0;entryDy=0;entryPerimeter=0;" edge="1" parent="1" source="qhzzw8bc_UFKbvu62uzi-65" target="qhzzw8bc_UFKbvu62uzi-59">
          <mxGeometry relative="1" as="geometry" />
        </mxCell>
        <mxCell id="qhzzw8bc_UFKbvu62uzi-70" style="edgeStyle=orthogonalEdgeStyle;rounded=0;orthogonalLoop=1;jettySize=auto;html=1;entryX=1;entryY=0.5;entryDx=0;entryDy=0;" edge="1" parent="1" source="qhzzw8bc_UFKbvu62uzi-68" target="qhzzw8bc_UFKbvu62uzi-59">
          <mxGeometry relative="1" as="geometry" />
        </mxCell>
        <mxCell id="qhzzw8bc_UFKbvu62uzi-71" value="&lt;span style=&quot;text-wrap: wrap;&quot;&gt;Employee&lt;/span&gt;" style="swimlane;fontStyle=0;childLayout=stackLayout;horizontal=1;startSize=26;fillColor=none;horizontalStack=0;resizeParent=1;resizeParentMax=0;resizeLast=0;collapsible=1;marginBottom=0;html=1;" vertex="1" parent="1">
          <mxGeometry x="80" y="818" width="140" height="78" as="geometry" />
        </mxCell>
        <mxCell id="qhzzw8bc_UFKbvu62uzi-72" value="id" style="text;strokeColor=none;fillColor=none;align=left;verticalAlign=top;spacingLeft=4;spacingRight=4;overflow=hidden;rotatable=0;points=[[0,0.5],[1,0.5]];portConstraint=eastwest;whiteSpace=wrap;html=1;fontStyle=4" vertex="1" parent="qhzzw8bc_UFKbvu62uzi-71">
          <mxGeometry y="26" width="140" height="26" as="geometry" />
        </mxCell>
        <mxCell id="qhzzw8bc_UFKbvu62uzi-73" value="&lt;div style=&quot;text-align: center;&quot;&gt;&lt;span style=&quot;background-color: initial;&quot;&gt;Hr_id&lt;/span&gt;&lt;/div&gt;" style="text;strokeColor=none;fillColor=none;align=left;verticalAlign=top;spacingLeft=4;spacingRight=4;overflow=hidden;rotatable=0;points=[[0,0.5],[1,0.5]];portConstraint=eastwest;whiteSpace=wrap;html=1;fontStyle=0" vertex="1" parent="qhzzw8bc_UFKbvu62uzi-71">
          <mxGeometry y="52" width="140" height="26" as="geometry" />
        </mxCell>
        <mxCell id="qhzzw8bc_UFKbvu62uzi-74" value="&lt;span style=&quot;text-wrap: wrap;&quot;&gt;HR department&lt;/span&gt;" style="swimlane;fontStyle=0;childLayout=stackLayout;horizontal=1;startSize=40;fillColor=none;horizontalStack=0;resizeParent=1;resizeParentMax=0;resizeLast=0;collapsible=1;marginBottom=0;html=1;" vertex="1" parent="1">
          <mxGeometry x="260" y="830" width="140" height="92" as="geometry" />
        </mxCell>
        <mxCell id="qhzzw8bc_UFKbvu62uzi-112" value="id" style="text;strokeColor=none;fillColor=none;align=left;verticalAlign=top;spacingLeft=4;spacingRight=4;overflow=hidden;rotatable=0;points=[[0,0.5],[1,0.5]];portConstraint=eastwest;whiteSpace=wrap;html=1;fontStyle=4" vertex="1" parent="qhzzw8bc_UFKbvu62uzi-74">
          <mxGeometry y="40" width="140" height="26" as="geometry" />
        </mxCell>
        <mxCell id="qhzzw8bc_UFKbvu62uzi-75" value="manager_id" style="text;strokeColor=none;fillColor=none;align=left;verticalAlign=top;spacingLeft=4;spacingRight=4;overflow=hidden;rotatable=0;points=[[0,0.5],[1,0.5]];portConstraint=eastwest;whiteSpace=wrap;html=1;fontStyle=0" vertex="1" parent="qhzzw8bc_UFKbvu62uzi-74">
          <mxGeometry y="66" width="140" height="26" as="geometry" />
        </mxCell>
        <mxCell id="qhzzw8bc_UFKbvu62uzi-77" style="edgeStyle=orthogonalEdgeStyle;rounded=0;orthogonalLoop=1;jettySize=auto;html=1;entryX=0;entryY=0.5;entryDx=0;entryDy=0;" edge="1" parent="1" source="qhzzw8bc_UFKbvu62uzi-73" target="qhzzw8bc_UFKbvu62uzi-75">
          <mxGeometry relative="1" as="geometry" />
        </mxCell>
        <mxCell id="qhzzw8bc_UFKbvu62uzi-80" value="&lt;span style=&quot;text-wrap: wrap;&quot;&gt;Accountant&lt;/span&gt;" style="swimlane;fontStyle=0;childLayout=stackLayout;horizontal=1;startSize=26;fillColor=none;horizontalStack=0;resizeParent=1;resizeParentMax=0;resizeLast=0;collapsible=1;marginBottom=0;html=1;" vertex="1" parent="1">
          <mxGeometry x="480" y="788" width="140" height="78" as="geometry" />
        </mxCell>
        <mxCell id="qhzzw8bc_UFKbvu62uzi-81" value="id" style="text;strokeColor=none;fillColor=none;align=left;verticalAlign=top;spacingLeft=4;spacingRight=4;overflow=hidden;rotatable=0;points=[[0,0.5],[1,0.5]];portConstraint=eastwest;whiteSpace=wrap;html=1;fontStyle=4" vertex="1" parent="qhzzw8bc_UFKbvu62uzi-80">
          <mxGeometry y="26" width="140" height="26" as="geometry" />
        </mxCell>
        <mxCell id="qhzzw8bc_UFKbvu62uzi-99" value="manager_id" style="text;strokeColor=none;fillColor=none;align=left;verticalAlign=top;spacingLeft=4;spacingRight=4;overflow=hidden;rotatable=0;points=[[0,0.5],[1,0.5]];portConstraint=eastwest;whiteSpace=wrap;html=1;fontStyle=0" vertex="1" parent="qhzzw8bc_UFKbvu62uzi-80">
          <mxGeometry y="52" width="140" height="26" as="geometry" />
        </mxCell>
        <mxCell id="qhzzw8bc_UFKbvu62uzi-83" value="Tax" style="swimlane;fontStyle=0;childLayout=stackLayout;horizontal=1;startSize=26;fillColor=none;horizontalStack=0;resizeParent=1;resizeParentMax=0;resizeLast=0;collapsible=1;marginBottom=0;html=1;" vertex="1" parent="1">
          <mxGeometry x="730" y="800" width="140" height="78" as="geometry" />
        </mxCell>
        <mxCell id="qhzzw8bc_UFKbvu62uzi-84" value="id" style="text;strokeColor=none;fillColor=none;align=left;verticalAlign=top;spacingLeft=4;spacingRight=4;overflow=hidden;rotatable=0;points=[[0,0.5],[1,0.5]];portConstraint=eastwest;whiteSpace=wrap;html=1;fontStyle=4" vertex="1" parent="qhzzw8bc_UFKbvu62uzi-83">
          <mxGeometry y="26" width="140" height="26" as="geometry" />
        </mxCell>
        <mxCell id="qhzzw8bc_UFKbvu62uzi-85" value="&lt;span style=&quot;text-align: center;&quot;&gt;Accountant_id&lt;/span&gt;" style="text;strokeColor=none;fillColor=none;align=left;verticalAlign=top;spacingLeft=4;spacingRight=4;overflow=hidden;rotatable=0;points=[[0,0.5],[1,0.5]];portConstraint=eastwest;whiteSpace=wrap;html=1;fontStyle=0" vertex="1" parent="qhzzw8bc_UFKbvu62uzi-83">
          <mxGeometry y="52" width="140" height="26" as="geometry" />
        </mxCell>
        <mxCell id="qhzzw8bc_UFKbvu62uzi-86" style="edgeStyle=orthogonalEdgeStyle;rounded=0;orthogonalLoop=1;jettySize=auto;html=1;entryX=1;entryY=0.5;entryDx=0;entryDy=0;" edge="1" parent="1" source="qhzzw8bc_UFKbvu62uzi-85" target="qhzzw8bc_UFKbvu62uzi-81">
          <mxGeometry relative="1" as="geometry" />
        </mxCell>
        <mxCell id="qhzzw8bc_UFKbvu62uzi-87" value="&lt;span style=&quot;text-wrap: wrap;&quot;&gt;Manager&lt;/span&gt;" style="swimlane;fontStyle=0;childLayout=stackLayout;horizontal=1;startSize=26;fillColor=none;horizontalStack=0;resizeParent=1;resizeParentMax=0;resizeLast=0;collapsible=1;marginBottom=0;html=1;" vertex="1" parent="1">
          <mxGeometry x="285" y="718" width="140" height="52" as="geometry" />
        </mxCell>
        <mxCell id="qhzzw8bc_UFKbvu62uzi-88" value="id" style="text;strokeColor=none;fillColor=none;align=left;verticalAlign=top;spacingLeft=4;spacingRight=4;overflow=hidden;rotatable=0;points=[[0,0.5],[1,0.5]];portConstraint=eastwest;whiteSpace=wrap;html=1;fontStyle=4" vertex="1" parent="qhzzw8bc_UFKbvu62uzi-87">
          <mxGeometry y="26" width="140" height="26" as="geometry" />
        </mxCell>
        <mxCell id="qhzzw8bc_UFKbvu62uzi-90" value="&lt;span style=&quot;text-wrap: wrap;&quot;&gt;Company&#39;s Owner&lt;/span&gt;" style="swimlane;fontStyle=0;childLayout=stackLayout;horizontal=1;startSize=40;fillColor=none;horizontalStack=0;resizeParent=1;resizeParentMax=0;resizeLast=0;collapsible=1;marginBottom=0;html=1;" vertex="1" parent="1">
          <mxGeometry x="540" y="652" width="140" height="118" as="geometry" />
        </mxCell>
        <mxCell id="qhzzw8bc_UFKbvu62uzi-91" value="id" style="text;strokeColor=none;fillColor=none;align=left;verticalAlign=top;spacingLeft=4;spacingRight=4;overflow=hidden;rotatable=0;points=[[0,0.5],[1,0.5]];portConstraint=eastwest;whiteSpace=wrap;html=1;fontStyle=4" vertex="1" parent="qhzzw8bc_UFKbvu62uzi-90">
          <mxGeometry y="40" width="140" height="26" as="geometry" />
        </mxCell>
        <mxCell id="qhzzw8bc_UFKbvu62uzi-105" value="&lt;span style=&quot;text-align: center;&quot;&gt;Company_id&lt;/span&gt;" style="text;strokeColor=none;fillColor=none;align=left;verticalAlign=top;spacingLeft=4;spacingRight=4;overflow=hidden;rotatable=0;points=[[0,0.5],[1,0.5]];portConstraint=eastwest;whiteSpace=wrap;html=1;fontStyle=0" vertex="1" parent="qhzzw8bc_UFKbvu62uzi-90">
          <mxGeometry y="66" width="140" height="26" as="geometry" />
        </mxCell>
        <mxCell id="qhzzw8bc_UFKbvu62uzi-92" value="manager_id" style="text;strokeColor=none;fillColor=none;align=left;verticalAlign=top;spacingLeft=4;spacingRight=4;overflow=hidden;rotatable=0;points=[[0,0.5],[1,0.5]];portConstraint=eastwest;whiteSpace=wrap;html=1;fontStyle=0" vertex="1" parent="qhzzw8bc_UFKbvu62uzi-90">
          <mxGeometry y="92" width="140" height="26" as="geometry" />
        </mxCell>
        <mxCell id="qhzzw8bc_UFKbvu62uzi-93" style="edgeStyle=orthogonalEdgeStyle;rounded=0;orthogonalLoop=1;jettySize=auto;html=1;entryX=1;entryY=0.5;entryDx=0;entryDy=0;" edge="1" parent="1" source="qhzzw8bc_UFKbvu62uzi-92" target="qhzzw8bc_UFKbvu62uzi-88">
          <mxGeometry relative="1" as="geometry" />
        </mxCell>
        <mxCell id="qhzzw8bc_UFKbvu62uzi-94" value="&lt;span style=&quot;text-wrap: wrap;&quot;&gt;System administrator&lt;/span&gt;" style="swimlane;fontStyle=0;childLayout=stackLayout;horizontal=1;startSize=40;fillColor=none;horizontalStack=0;resizeParent=1;resizeParentMax=0;resizeLast=0;collapsible=1;marginBottom=0;html=1;" vertex="1" parent="1">
          <mxGeometry x="80" y="678" width="140" height="92" as="geometry" />
        </mxCell>
        <mxCell id="qhzzw8bc_UFKbvu62uzi-95" value="id" style="text;strokeColor=none;fillColor=none;align=left;verticalAlign=top;spacingLeft=4;spacingRight=4;overflow=hidden;rotatable=0;points=[[0,0.5],[1,0.5]];portConstraint=eastwest;whiteSpace=wrap;html=1;fontStyle=4" vertex="1" parent="qhzzw8bc_UFKbvu62uzi-94">
          <mxGeometry y="40" width="140" height="26" as="geometry" />
        </mxCell>
        <mxCell id="qhzzw8bc_UFKbvu62uzi-96" value="manager_id" style="text;strokeColor=none;fillColor=none;align=left;verticalAlign=top;spacingLeft=4;spacingRight=4;overflow=hidden;rotatable=0;points=[[0,0.5],[1,0.5]];portConstraint=eastwest;whiteSpace=wrap;html=1;fontStyle=0" vertex="1" parent="qhzzw8bc_UFKbvu62uzi-94">
          <mxGeometry y="66" width="140" height="26" as="geometry" />
        </mxCell>
        <mxCell id="qhzzw8bc_UFKbvu62uzi-97" style="edgeStyle=orthogonalEdgeStyle;rounded=0;orthogonalLoop=1;jettySize=auto;html=1;entryX=0;entryY=0.5;entryDx=0;entryDy=0;" edge="1" parent="1" source="qhzzw8bc_UFKbvu62uzi-96" target="qhzzw8bc_UFKbvu62uzi-88">
          <mxGeometry relative="1" as="geometry" />
        </mxCell>
        <mxCell id="qhzzw8bc_UFKbvu62uzi-100" style="edgeStyle=orthogonalEdgeStyle;rounded=0;orthogonalLoop=1;jettySize=auto;html=1;entryX=1;entryY=0.5;entryDx=0;entryDy=0;" edge="1" parent="1" source="qhzzw8bc_UFKbvu62uzi-99" target="qhzzw8bc_UFKbvu62uzi-88">
          <mxGeometry relative="1" as="geometry" />
        </mxCell>
        <mxCell id="qhzzw8bc_UFKbvu62uzi-102" style="edgeStyle=orthogonalEdgeStyle;rounded=0;orthogonalLoop=1;jettySize=auto;html=1;entryX=1;entryY=0.5;entryDx=0;entryDy=0;" edge="1" parent="1" source="qhzzw8bc_UFKbvu62uzi-50" target="qhzzw8bc_UFKbvu62uzi-37">
          <mxGeometry relative="1" as="geometry">
            <mxPoint x="680" y="570" as="targetPoint" />
          </mxGeometry>
        </mxCell>
        <mxCell id="qhzzw8bc_UFKbvu62uzi-103" value="&lt;span style=&quot;text-wrap: wrap;&quot;&gt;Company&lt;/span&gt;" style="swimlane;fontStyle=0;childLayout=stackLayout;horizontal=1;startSize=26;fillColor=none;horizontalStack=0;resizeParent=1;resizeParentMax=0;resizeLast=0;collapsible=1;marginBottom=0;html=1;" vertex="1" parent="1">
          <mxGeometry x="760" y="718" width="140" height="52" as="geometry" />
        </mxCell>
        <mxCell id="qhzzw8bc_UFKbvu62uzi-104" value="id" style="text;strokeColor=none;fillColor=none;align=left;verticalAlign=top;spacingLeft=4;spacingRight=4;overflow=hidden;rotatable=0;points=[[0,0.5],[1,0.5]];portConstraint=eastwest;whiteSpace=wrap;html=1;fontStyle=4" vertex="1" parent="qhzzw8bc_UFKbvu62uzi-103">
          <mxGeometry y="26" width="140" height="26" as="geometry" />
        </mxCell>
        <mxCell id="qhzzw8bc_UFKbvu62uzi-106" style="edgeStyle=orthogonalEdgeStyle;rounded=0;orthogonalLoop=1;jettySize=auto;html=1;entryX=0;entryY=0.5;entryDx=0;entryDy=0;" edge="1" parent="1" source="qhzzw8bc_UFKbvu62uzi-105" target="qhzzw8bc_UFKbvu62uzi-104">
          <mxGeometry relative="1" as="geometry" />
        </mxCell>
        <mxCell id="qhzzw8bc_UFKbvu62uzi-107" value="&lt;span style=&quot;text-wrap: wrap;&quot;&gt;Digital marketer&lt;/span&gt;" style="swimlane;fontStyle=0;childLayout=stackLayout;horizontal=1;startSize=26;fillColor=none;horizontalStack=0;resizeParent=1;resizeParentMax=0;resizeLast=0;collapsible=1;marginBottom=0;html=1;" vertex="1" parent="1">
          <mxGeometry x="1010" y="710" width="140" height="78" as="geometry" />
        </mxCell>
        <mxCell id="qhzzw8bc_UFKbvu62uzi-108" value="id" style="text;strokeColor=none;fillColor=none;align=left;verticalAlign=top;spacingLeft=4;spacingRight=4;overflow=hidden;rotatable=0;points=[[0,0.5],[1,0.5]];portConstraint=eastwest;whiteSpace=wrap;html=1;fontStyle=4" vertex="1" parent="qhzzw8bc_UFKbvu62uzi-107">
          <mxGeometry y="26" width="140" height="26" as="geometry" />
        </mxCell>
        <mxCell id="qhzzw8bc_UFKbvu62uzi-109" value="&lt;span style=&quot;text-align: center;&quot;&gt;Company_id&lt;/span&gt;" style="text;strokeColor=none;fillColor=none;align=left;verticalAlign=top;spacingLeft=4;spacingRight=4;overflow=hidden;rotatable=0;points=[[0,0.5],[1,0.5]];portConstraint=eastwest;whiteSpace=wrap;html=1;fontStyle=0" vertex="1" parent="qhzzw8bc_UFKbvu62uzi-107">
          <mxGeometry y="52" width="140" height="26" as="geometry" />
        </mxCell>
        <mxCell id="qhzzw8bc_UFKbvu62uzi-110" style="edgeStyle=orthogonalEdgeStyle;rounded=0;orthogonalLoop=1;jettySize=auto;html=1;entryX=1;entryY=0.5;entryDx=0;entryDy=0;" edge="1" parent="1" source="qhzzw8bc_UFKbvu62uzi-109" target="qhzzw8bc_UFKbvu62uzi-104">
          <mxGeometry relative="1" as="geometry" />
        </mxCell>
        <mxCell id="qhzzw8bc_UFKbvu62uzi-115" style="edgeStyle=orthogonalEdgeStyle;rounded=0;orthogonalLoop=1;jettySize=auto;html=1;entryX=1;entryY=0.5;entryDx=0;entryDy=0;" edge="1" parent="1" source="qhzzw8bc_UFKbvu62uzi-75" target="qhzzw8bc_UFKbvu62uzi-88">
          <mxGeometry relative="1" as="geometry" />
        </mxCell>
      </root>
    </mxGraphModel>
  </diagram>
</mxfile>
